<svg viewBox="0 0 46 46" version="1.1" xmlns="http://www.w3.org/2000/svg" xmlns:xlink="http://www.w3.org/1999/xlink">
    <!-- Generator: Sketch 46.2 (44496) - http://www.bohemiancoding.com/sketch -->
    <title>Shape</title>
    <desc>Created with Sketch.</desc>
    <defs></defs>
    <g id="Page-1" stroke="none" stroke-width="1" fill="none" fill-rule="evenodd">
        <g id="arrow" fill-rule="nonzero" fill="#000000">
            <path d="M25.7849315,2.9041543 C25.7849315,3.57181009 25.990411,4.23946588 26.4013699,4.7735905 L38.1136986,19.9961424 L2.15479452,19.9961424 C1.02465753,19.9961424 0.1,21.1979228 0.1,22.6667656 C0.1,24.1356083 1.02465753,25.3373887 2.15479452,25.3373887 L38.1136986,25.3373887 L26.4013699,40.5599407 C25.990411,41.0940653 25.7849315,41.7617211 25.7849315,42.4293769 C25.7849315,43.0970326 25.990411,43.7646884 26.4013699,44.2988131 C27.2232877,45.3670623 28.4561644,45.3670623 29.2780822,44.2988131 L44.4835616,24.5362018 C45.3054795,23.4679525 45.3054795,21.8655786 44.4835616,20.7973294 L29.2780822,0.901186944 C28.4561644,-0.167062315 27.2232877,-0.167062315 26.4013699,0.901186944 C25.990411,1.43531157 25.7849315,2.10296736 25.7849315,2.9041543 Z" id="Shape"></path>
        </g>
    </g>
</svg>
