<!-- <?xml version="1.0" encoding="UTF-8"?> -->
<svg viewBox="0 0 1199 310" version="1.1" xmlns="http://www.w3.org/2000/svg" xmlns:xlink="http://www.w3.org/1999/xlink">
    <!-- Generator: Sketch 46.2 (44496) - http://www.bohemiancoding.com/sketch -->
    <title>Logo+nom</title>
    <desc>Created with Sketch.</desc>
    <defs>
        <polygon id="path-1" points="39.0306122 0 150 61.9472775 150 181.112667 39.0306122 240.500631"></polygon>
        <filter x="-6.3%" y="-2.1%" width="112.6%" height="105.8%" filterUnits="objectBoundingBox" id="filter-2">
            <feOffset dx="0" dy="2" in="SourceAlpha" result="shadowOffsetOuter1"></feOffset>
            <feGaussianBlur stdDeviation="2" in="shadowOffsetOuter1" result="shadowBlurOuter1"></feGaussianBlur>
            <feColorMatrix values="0 0 0 0 0   0 0 0 0 0   0 0 0 0 0  0 0 0 0.5 0" type="matrix" in="shadowBlurOuter1"></feColorMatrix>
        </filter>
    </defs>
    <g id="Symbols" stroke="none" stroke-width="1" fill="none" fill-rule="evenodd">
        <g id="Logo+nom">
            <g id="logo+nom-groupés">
                <g id="Logo-avenir-dsi" transform="translate(1049.000000, 0.000000)">
                    <g>
                        <g id="Rectangle-2">
                            <use fill="black"  fill-opacity="1" filter="url(#filter-2)" xlink:href="#path-1"></use>
                            <use fill="#FFFFFF" fill-rule="evenodd" xlink:href="#path-1"></use>
                        </g>
                        <polygon id="Rectangle-2-Copy" fill="#1351AF" points="46.6836735 12.5 142.346939 65.9028255 142.346939 99.0663334 46.6836735 45.6632653"></polygon>
                        <polygon id="Rectangle-2-Copy-2" fill="#41AA7D" points="46.6836735 45.4081633 142.346939 98.8109887 142.346939 131.974497 46.6836735 78.5714286"></polygon>
                        <polygon id="Rectangle-2-Copy-3" fill="#8FC9A8" points="46.6836735 78.5714286 142.346939 131.974254 142.346939 165.137762 46.6836735 111.734694"></polygon>
                        <g id="Group-2" transform="translate(0.000000, 91.836735)">
                            <polygon id="Triangle-2-Copy-2" fill="#E5443C" transform="translate(72.066327, 69.260204) rotate(-30.000000) translate(-72.066327, -69.260204) " points="69.9303056 21.1734694 127.295918 117.346939 16.8367347 113.190418"></polygon>
                            <polygon id="Triangle-2-Copy-3" fill="#F89E4A" transform="translate(64.285714, 57.015306) rotate(-30.000000) translate(-64.285714, -57.015306) " points="62.7860599 23.2142857 103.061224 90.8163265 25.5102041 87.8946341"></polygon>
                            <polygon id="Triangle-2-Copy-4" fill="#EFE800" transform="translate(56.122449, 44.387755) rotate(-30.000000) translate(-56.122449, -44.387755) " points="55.2739603 25.255102 78.0612245 63.5204082 34.1836735 61.86662"></polygon>
                        </g>
                    </g>
                </g>
                <g id="Nom-avenir-dsi" transform="translate(0.000000, 159.000000)" fill="rgba(20,85,180,1.00)">
                    <path d="M62.0967742,3.68716589 L84.0725806,3.68716589 L145.564516,146.429101 L116.532258,146.429101 L103.225806,113.767811 L41.3306452,113.767811 L28.4274194,146.429101 L0,146.429101 L62.0967742,3.68716589 Z M94.3548387,91.9936175 L72.3790323,33.9291014 L50,91.9936175 L41.3306452,113.767811 L49.5841795,113.767811 L57.8629032,91.9936175 L94.3548387,91.9936175 Z M127.419355,3.68716589 L156.653226,3.68716589 L195.564516,111.550069 L235.685484,3.68716589 L263.104839,3.68716589 L205.443548,146.429101 L183.467742,146.429101 L127.419355,3.68716589 Z M273.387097,3.68716589 L367.943548,3.68716589 L367.943548,26.6710369 L298.790323,26.6710369 L298.790323,61.751682 L364.314516,61.751682 L364.314516,84.735553 L298.790323,84.735553 L298.790323,123.44523 L371.572581,123.44523 L371.572581,146.429101 L273.387097,146.429101 L273.387097,3.68716589 Z M391.532258,3.68716589 L425.201613,3.68716589 L494.354839,109.735553 L494.758065,109.735553 L494.758065,3.68716589 L520.16129,3.68716589 L520.16129,146.429101 L487.903226,146.429101 L417.33871,36.9532949 L416.935484,36.9532949 L416.935484,146.429101 L391.532258,146.429101 L391.532258,3.68716589 Z M546.370968,3.68716589 L571.774194,3.68716589 L571.774194,146.429101 L546.370968,146.429101 L546.370968,3.68716589 Z M597.983871,3.68716589 L647.580645,3.68716589 C654.435518,3.68716589 661.055076,4.32560037 667.439516,5.60248847 C673.823957,6.87937658 679.502663,9.06349452 684.475806,12.1549078 C689.44895,15.2463211 693.413964,19.4129461 696.370968,24.6549078 C699.327972,29.8968695 700.806452,36.5500288 700.806452,44.6145852 C700.806452,54.9640994 697.950297,63.6333675 692.237903,70.6226498 C686.525509,77.611932 678.360268,81.8457607 667.741935,83.3242627 L705.645161,146.429101 L675,146.429101 L641.935484,85.9452304 L623.387097,85.9452304 L623.387097,146.429101 L597.983871,146.429101 L597.983871,3.68716589 Z M643.145161,64.1710369 C646.774212,64.1710369 650.403208,64.0030278 654.032258,63.6670046 C657.661308,63.3309814 660.987888,62.5245379 664.012097,61.2476498 C667.036305,59.9707617 669.489238,58.0218564 671.370968,55.4008756 C673.252698,52.7798947 674.193548,49.1172969 674.193548,44.4129723 C674.193548,40.2462848 673.319901,36.8861034 671.572581,34.3323272 C669.82526,31.778551 667.540337,29.8632475 664.717742,28.5863594 C661.895147,27.3094713 658.770178,26.469426 655.342742,26.0661982 C651.915305,25.6629703 648.588726,25.4613594 645.362903,25.4613594 L623.387097,25.4613594 L623.387097,61.3642195 L623.387097,85.9444232 L631.703629,85.9444232 L631.703629,64.1710369 L643.145161,64.1710369 Z M774.596774,3.68716589 L830.846774,3.68716589 C840.255423,3.68716589 849.327913,5.13204392 858.064516,8.02184331 C866.801119,10.9116427 874.529536,15.3134804 881.25,21.2274885 C887.970464,27.1414965 893.346754,34.5674975 897.379032,43.5057143 C901.41131,52.443931 903.427419,62.961299 903.427419,75.0581336 C903.427419,87.2893776 901.108894,97.8739492 896.471774,106.812166 C891.834654,115.750383 885.853531,123.142782 878.528226,128.989585 C871.20292,134.836389 863.071281,139.204625 854.133065,142.094424 C845.194848,144.984223 836.424774,146.429101 827.822581,146.429101 L774.596774,146.429101 L774.596774,3.68716589 Z M818.951613,123.44523 C826.88176,123.44523 834.374965,122.537981 841.431452,120.723456 C848.487939,118.908931 854.637071,116.086379 859.879032,112.255714 C865.120994,108.42505 869.254017,103.451981 872.278226,97.3363594 C875.302434,91.2207375 876.814516,83.7947365 876.814516,75.0581336 C876.814516,66.4559401 875.470444,59.0635409 872.782258,52.8807143 C870.094073,46.6978877 866.364271,41.6912173 861.592742,37.860553 C856.821213,34.0298887 851.176108,31.2073363 844.657258,29.3928111 C838.138408,27.5782859 830.981222,26.6710369 823.185484,26.6710369 L800,26.6710369 L800,123.44523 L818.951613,123.44523 Z M1004.46156,34.3323272 C1001.37097,30.4344582 997.237361,27.578304 992.060619,25.7637788 C986.883878,23.9492536 981.436791,23.0420046 975.719196,23.0420046 C972.319544,23.0420046 969.035839,23.3780227 965.867983,24.0500691 C962.700126,24.7221155 959.841371,25.7973736 957.291632,27.2758756 C954.741894,28.7543776 952.694407,30.669681 951.149111,33.0218433 C949.603815,35.3740056 948.831179,38.1629562 948.831179,41.3887788 C948.831179,46.2275127 950.76277,49.9237123 954.62601,52.4774885 C958.48925,55.0312647 963.279596,57.2489844 968.997191,59.1307143 C974.714787,61.0124441 980.973142,62.8269421 987.772444,64.5742627 C994.571747,66.3215832 1000.8301,68.7409139 1006.5477,71.8323272 C1012.26529,74.9237405 1017.05564,79.0231619 1020.91888,84.1307143 C1024.78212,89.2382667 1026.71371,96.0258332 1026.71371,104.493618 C1026.71371,112.154946 1025.09117,118.841707 1021.84605,124.554101 C1018.60093,130.266496 1014.23553,135.004351 1008.74973,138.767811 C1003.26393,142.531271 996.889682,145.353823 989.62679,147.235553 C982.363899,149.117283 974.714798,150.058134 966.679259,150.058134 C956.480305,150.058134 946.667822,148.579654 937.241517,145.62265 C927.815211,142.665646 919.702528,137.692577 912.903226,130.703295 L934.923584,112.154908 C938.477765,116.859232 943.152215,120.52183 948.947076,123.142811 C954.741936,125.763792 960.884395,127.074263 967.374639,127.074263 C970.77429,127.074263 974.17389,126.671041 977.573541,125.864585 C980.973193,125.05813 984.063738,123.848464 986.845271,122.235553 C989.626804,120.622642 991.86745,118.572931 993.567275,116.086359 C995.267101,113.599788 996.117001,110.743634 996.117001,107.517811 C996.117001,102.275849 994.18541,98.2436316 990.32217,95.4210369 C986.45893,92.5984421 981.668584,90.2127133 975.950989,88.2637788 C970.233393,86.3148443 963.975038,84.4667445 957.175736,82.719424 C950.376433,80.9721034 944.118078,78.5863746 938.400483,75.5621659 C932.682888,72.5379572 927.892542,68.5057395 924.029302,63.4653917 C920.166062,58.4250439 918.23447,51.6710792 918.23447,43.2032949 C918.23447,35.8107848 919.972902,29.4264401 923.449819,24.0500691 C926.926735,18.6736982 931.48529,14.2046568 937.12562,10.6428111 C942.765951,7.08096529 949.217465,4.42642194 956.480356,2.67910138 C963.743247,0.931780811 971.160557,0.0581336341 978.732508,0.0581336341 C987.386166,0.0581336341 995.769271,1.20059533 1003.88207,3.48555299 C1011.99488,5.77051065 1019.29629,9.53391388 1025.78654,14.7758756 L1004.46156,34.3323272 Z M1047.27823,3.68716589 L1072.68145,3.68716589 L1072.68145,146.429101 L1047.27823,146.429101 L1047.27823,3.68716589 Z" id="AVENIR-DSI"></path>
                </g>
            </g>
        </g>
    </g>
</svg>
