<svg xmlns="http://www.w3.org/2000/svg" xmlns:xlink="http://www.w3.org/1999/xlink" version="1.1" x="0px" y="0px" viewBox="0 0 100 125" style="enable-background:new 0 0 100 100;" xml:space="preserve"><g><path d="M53.1,35.2c0,0.5,0.2,1,0.6,1.4L65.1,48h-35c-1.1,0-2,0.9-2,2s0.9,2,2,2h35L53.7,63.4   c-0.4,0.4-0.6,0.9-0.6,1.4s0.2,1,0.6,1.4c0.8,0.8,2,0.8,2.8,0l14.8-14.8c0.8-0.8,0.8-2,0-2.8L56.5,33.7c-0.8-0.8-2-0.8-2.8,0   C53.3,34.1,53.1,34.6,53.1,35.2z"/></g><text x="0" y="115" fill="#000000" font-size="5px" font-weight="bold" font-family="'Helvetica Neue', Helvetica, Arial-Unicode, Arial, Sans-serif">Created by Kuber</text><text x="0" y="120" fill="#000000" font-size="5px" font-weight="bold" font-family="'Helvetica Neue', Helvetica, Arial-Unicode, Arial, Sans-serif">from the Noun Project</text></svg>